<!-- Created with Inkscape (http://www.inkscape.org/) -->
<svg xmlns:inkscape="http://www.inkscape.org/namespaces/inkscape" xmlns:rdf="http://www.w3.org/1999/02/22-rdf-syntax-ns#" xmlns="http://www.w3.org/2000/svg" inkscape:version="0.48.1 r9760" height="339.696732324" viewBox="0 0 349.1 402.84" width="294.380223548" version="1.1" xmlns:cc="http://creativecommons.org/ns#" xmlns:dc="http://purl.org/dc/elements/1.1/" sodipodi:docname="kenya opt.svg" xmlns:sodipodi="http://sodipodi.sourceforge.net/DTD/sodipodi-0.dtd">
<sodipodi:namedview bordercolor="#666666" inkscape:pageshadow="2" inkscape:window-y="-12" fit-margin-left="0" pagecolor="#ffffff" inkscape:zoom="1.979899" inkscape:window-maximized="1" inkscape:window-x="-7" showgrid="false" borderopacity="1.0" inkscape:current-layer="g3073" inkscape:cx="210.13539" inkscape:cy="240.41183" inkscape:pageopacity="0.0" fit-margin-right="0" fit-margin-bottom="0" inkscape:window-height="981" fit-margin-top="0" inkscape:window-width="1280" inkscape:document-units="px"/>
<metadata>
<rdf:RDF>
<cc:Work rdf:about="">
<dc:format>image/svg+xml</dc:format>
<dc:type rdf:resource="http://purl.org/dc/dcmitype/StillImage"/>
<dc:title/>
</cc:Work>
</rdf:RDF>
</metadata>
<g inkscape:label="Layer 1" transform="translate(15.920877,-181.71671)" inkscape:groupmode="layer">
<g transform="matrix(0.6529998,0,0,0.6529998,28.123915,305.55025)">
<path fill="#060" inkscape:connector-curvature="0" d="m242.85,264.75c11,0.492,17.967-7.94,19.892-18.764-13.302,6.222-24.863-2.646-27.627-13.862-4.361,0.888-9.297,1.608-14.646,2.138,2.843,12.835,8.272,29.856,22.381,30.488z"/>
<path fill="#060" inkscape:connector-curvature="0" d="m137.46,245.98c1.925,10.823,8.893,19.256,19.896,18.764,14.094-0.632,19.524-17.623,22.371-30.455-5.346-0.515-10.286-1.225-14.66-2.101-2.795,11.182-14.333,20.001-27.607,13.792z"/>
<ellipse sodipodi:rx="42.978001" sodipodi:ry="6.1030002" fill="none" d="m 242.898,221.75 c 0,3.37059 -19.24191,6.103 -42.978,6.103 -23.7361,0 -42.978,-2.73241 -42.978,-6.103 0,-3.37059 19.2419,-6.103 42.978,-6.103 23.73609,0 42.978,2.73241 42.978,6.103 z" cy="221.75" rx="42.978" ry="6.103" stroke="#060" sodipodi:cy="221.75" cx="199.92" stroke-width="3.8" sodipodi:cx="199.92"/>
<g fill="#060">
<g fill="#060">
<path fill="#060" inkscape:connector-curvature="0" d="m133.97,143.51c-24.755-4.477-42.903,15.678-42.62,36.754,0.252,18.817,12.534,34.168,33.846,33.375-1.739-10.598,2.432-20.067,10.446-22.813,14.779-5.062,23.95,9.05,27.043,21.092,4.95-1.111,10.741-2.002,17.108-2.612-4.22-29.479-18.003-60.764-45.823-65.796zm-13.567,32.824-1.581,9.414-4.252-8.536-9.434,1.395,6.805-6.681-4.25-8.533,8.455,4.402,6.804-6.683-1.565,9.407,8.458,4.404-9.44,1.411z"/>
</g>
</g>
<g fill="#060">
<g fill="#060">
<path fill="#060" inkscape:connector-curvature="0" d="m308.11,175.19c-1.758-17.204-18.333-34.281-39.278-31.686-30.584,3.792-44.47,35.372-48.758,65.839,6.36,0.626,12.131,1.534,17.052,2.66,1.805-14.165,18.19-29.364,31.706-18.648,5.01,3.973,6.881,12.435,5.851,20.702,23.254-0.525,35.63-17.287,33.427-38.867zm-23.048,1.039-1.581,9.414-4.252-8.536-9.432,1.396,6.803-6.682-4.248-8.533,8.454,4.401,6.803-6.682-1.563,9.406,8.458,4.405-9.442,1.411z"/>
</g>
</g>
<path fill="#060" inkscape:connector-curvature="0" d="m199.93,109.04c-0.002-0.029-0.003-0.058-0.006-0.087l0.013-0.007c-0.002,0.031-0.004,0.061-0.007,0.094,3.678,52.35,3.089,95.054,3.02,99.266,4.61,0.065,9.066,0.276,13.297,0.615,0.835-15.102,11.881-37.872,11.881-37.872,13.109-25.011,11.957-38.121,11.957-38.121-0.634-27.944-25.757-42.606-25.757-42.606-7.485-5.419-14.366-12.663-14.4-12.697-0.102,0.107-6.946,7.298-14.394,12.69,0,0-25.123,14.661-25.757,42.605,0,0-1.152,13.11,11.957,38.121,0,0,11.046,22.768,11.881,37.87,4.231-0.337,8.688-0.545,13.298-0.608-0.07-4.184-0.661-46.897,3.017-99.263z"/>
<path fill="#060" inkscape:connector-curvature="0" d="m200.17,270.28-0.036,0.003c-2.66-13.44-2.731-31.218-2.716-34.871-4.975-0.055-9.77-0.282-14.303-0.654-2.844,18.396-12.931,30.785-12.931,30.785,10.333,20.268,29.949,27.979,29.949,27.979l0.036-0.003s19.616-7.712,29.949-27.979c0,0-10.104-12.409-12.936-30.831-4.528,0.387-9.32,0.629-14.298,0.697,0.018,3.643-0.054,21.429-2.714,34.874z"/>
</g>
<g transform="matrix(1.1960646,0,0,1.1960646,-80.94017,131.77092)" fill="#f51d23">
<g fill="#B00" fill-rule="evenodd">
<path d="m101.75,295.28s1.557,0.178,2.418-0.171c0.697-0.17,1.908-1.04,2.776-1.558,0.69-0.351,1.386-1.222,2.422-1.564,0,0,1.384-0.343,2.776-0.172-3.641-3.123-7.106-6.251-10.224-9.72v0.175c-1.214-0.354-2.772,0-2.772,0-1.039,0.17-1.908,0.867-2.598,1.383-0.697,0.353-2.083,1.043-2.776,1.221-0.865,0.172-2.601-0.178-2.601-0.178,3.294,3.643,6.764,7.119,10.398,10.584h0.181z" inkscape:connector-curvature="0"/>
<path d="m116.63,307.2s1.564-0.172,2.429-0.517c0.692-0.347,1.735-1.214,2.426-1.903,0.696-0.521,1.211-1.387,2.255-1.909,0,0,1.386-0.518,2.768-0.518-3.983-2.599-7.796-5.196-11.437-8.141v0.179c-1.211-0.179-2.595,0.172-2.595,0.172-1.214,0.347-1.904,1.213-2.429,1.729-0.862,0.52-2.073,1.388-2.77,1.559-0.868,0.347-2.425,0.175-2.425,0.175,3.637,3.288,7.624,6.233,11.606,9.175h0.172v-0.001z" inkscape:connector-curvature="0"/>
<path d="m132.92,317.08s1.558-0.354,2.428-0.696c0.518-0.519,1.557-1.559,2.075-2.254,0.696-0.69,1.041-1.559,2.084-2.249,0,0,1.211-0.696,2.597-0.867-4.33-1.903-8.494-4.157-12.477-6.577h0.174c-1.386,0.171-2.772,0.69-2.772,0.69-1.036,0.521-1.559,1.384-2.076,2.08-0.697,0.52-1.736,1.559-2.426,1.903-0.869,0.345-2.427,0.516-2.427,0.516,3.985,2.602,8.315,5.199,12.65,7.454h0.17z" inkscape:connector-curvature="0"/>
<path d="m150.41,324.69s1.563-0.343,2.253-1.037c0.525-0.521,1.387-1.559,1.912-2.422,0.342-0.696,0.69-1.735,1.729-2.425,0,0,1.041-0.87,2.427-1.215-4.509-1.385-9.012-3.117-13.168-5.024v0.179c-1.21,0.171-2.425,0.86-2.425,0.86-1.039,0.696-1.387,1.733-1.908,2.427-0.689,0.689-1.558,1.731-2.247,2.255-0.697,0.519-2.254,0.688-2.254,0.688,4.329,2.255,8.834,4.156,13.51,5.89l0.171-0.176z" inkscape:connector-curvature="0"/>
<path d="m261.95,319.85s0.688-1.385,0.862-2.254c0-0.694-0.175-2.252-0.347-3.117-0.172-0.868-0.69-1.729-0.69-2.941,0,0,0.347-1.386,0.862-2.601-4.157,2.248-8.312,4.159-12.649,5.889-0.687,1.04-1.212,2.426-1.212,2.426-0.347,1.388-0.17,1.902-0.17,2.946,0.17,0.86-0.177,2.426-0.347,3.116-0.173,0.866-0.871,2.597-0.871,2.597,4.512-1.559,10.054-3.812,14.562-5.891v-0.17z" inkscape:connector-curvature="0"/>
<path d="m278.58,310.84s0.687-1.56,0.687-2.6c-0.172-0.689-0.517-2.077-0.87-2.945-0.344-0.69-0.86-1.557-0.86-2.772,0,0,0-1.557,0.517-2.77-3.982,2.77-7.968,5.196-11.952,7.451h0.172c-0.696,1.214-0.866,2.601-0.866,2.601,0,1.206,0.518,2.073,0.694,2.942,0.172,0.86,0.516,2.247,0.516,3.115-0.171,0.861-0.868,2.249-0.868,2.249,4.335-2.077,8.663-4.504,12.83-7.271z" inkscape:connector-curvature="0"/>
<path d="m293.99,299.41s0.346-1.559,0.346-2.427c-0.173-0.69-0.87-2.072-1.214-2.941-0.344-0.689-1.213-1.386-1.387-2.6,0,0,0-1.385,0.174-2.771-3.468,3.122-7.105,6.239-10.745,9.009v-0.172c-0.349,1.386-0.349,2.771-0.349,2.771,0,1.208,0.697,2.075,1.042,2.771,0.345,0.862,0.871,2.247,0.871,2.944,0,0.861-0.526,2.421-0.526,2.421,4.162-2.603,7.976-5.716,11.788-8.832v-0.173z" inkscape:connector-curvature="0"/>
<path d="m307.85,286.24s0.173-1.557-0.181-2.418c-0.172-0.695-1.034-1.911-1.56-2.773-0.342-0.696-1.21-1.212-1.557-2.427,0,0-0.344-1.387-0.172-2.768-3.124,3.635-6.239,7.099-9.534,10.212-0.171,1.215,0,2.774,0,2.774,0.174,1.213,0.869,1.905,1.387,2.598,0.35,0.866,1.04,2.081,1.217,2.771,0.171,0.868-0.177,2.599-0.177,2.599,3.642-3.289,7.279-6.755,10.576-10.389v-0.179h0.001z" inkscape:connector-curvature="0"/>
<path d="m319.8,271.35s0-1.558-0.518-2.426c-0.172-0.689-1.211-1.729-1.736-2.427-0.689-0.689-1.559-1.207-2.078-2.247,0,0-0.52-1.387-0.52-2.773-2.427,3.984-5.199,7.791-8.145,11.431h0.175c-0.175,1.211,0.172,2.769,0.172,2.769,0.345,1.045,1.213,1.735,1.73,2.43,0.525,0.688,1.386,1.902,1.734,2.592,0.175,0.87,0.175,2.429,0.175,2.429,3.115-3.638,6.236-7.621,9.01-11.604v-0.174h0.001z" inkscape:connector-curvature="0"/>
<path d="m329.66,255.07s-0.345-1.56-0.697-2.421c-0.516-0.521-1.56-1.559-2.244-2.08-0.526-0.518-1.559-1.043-2.255-2.076,0,0-0.696-1.215-0.868-2.597-1.905,4.326-4.159,8.483-6.585,12.461l0.172-0.172c0,1.386,0.52,2.771,0.52,2.771,0.523,1.041,1.563,1.559,2.08,2.08,0.697,0.69,1.559,1.732,1.908,2.426,0.519,0.865,0.519,2.42,0.519,2.42,2.771-3.983,5.194-8.312,7.451-12.644v-0.168h-0.001z" inkscape:connector-curvature="0"/>
<path d="m337.81,237.75s-0.524-1.558-1.043-2.254c-0.343-0.686-1.557-1.555-2.254-2.074-0.688-0.523-1.558-0.866-2.252-1.909,0,0-0.864-1.205-1.037-2.593-1.734,4.502-3.813,8.66-5.892,12.816,0.171,1.212,0.867,2.601,0.867,2.601,0.519,1.032,1.559,1.376,2.078,2.071,0.692,0.519,1.735,1.56,2.08,2.256,0.517,0.69,0.695,2.42,0.695,2.42,2.42-4.329,4.673-8.658,6.757-13.158v-0.176h0.001z" inkscape:connector-curvature="0"/>
<path d="m342.65,219.4s-0.689-1.559-1.214-2.254c-0.691-0.345-1.902-1.04-2.77-1.559-0.69-0.344-1.729-0.515-2.602-1.211,0,0-1.04-1.215-1.558-2.427-0.867,4.681-1.907,9.352-3.124,13.684,0.349,1.214,1.387,2.427,1.387,2.427,0.697,0.86,1.737,1.038,2.427,1.557,0.868,0.518,2.083,1.215,2.601,1.73,0.522,0.695,1.04,2.253,1.04,2.253,1.56-4.502,2.77-9.353,3.986-14.2h-0.173z" inkscape:connector-curvature="0"/>
<path d="m345.6,200.52s-0.86-1.386-1.559-1.901c-0.686-0.521-2.079-1.042-2.941-1.214-0.694-0.343-1.734-0.343-2.777-1.04,0,0-1.034-0.864-1.73-2.077-0.345,4.674-0.696,9.352-1.387,14.026v-0.171c0.519,1.211,1.559,2.251,1.559,2.251,1.042,0.867,2.082,0.867,2.771,1.211,0.87,0.347,2.08,1.044,2.777,1.559,0.689,0.519,1.385,2.076,1.385,2.076,0.869-4.846,1.561-9.694,2.085-14.72h-0.183z" inkscape:connector-curvature="0"/>
<path d="m346.12,181.47s-1.039-1.387-1.907-1.73c-0.689-0.35-2.075-0.694-2.944-0.869-0.866-0.171-1.906,0-2.949-0.518,0,0-1.212-0.865-2.075-1.904,0.345,4.677,0.517,9.351,0.517,14.026v-0.172c0.697,1.211,1.911,2.08,1.911,2.08,0.86,0.692,1.901,0.692,2.77,0.865,0.868,0.171,2.253,0.693,2.944,1.036,0.695,0.521,1.564,1.907,1.564,1.907,0.342-4.848,0.342-9.701,0.169-14.721z" inkscape:connector-curvature="0"/>
<path d="m344.04,162.42s-1.209-1.041-2.072-1.387c-0.697-0.343-2.254-0.343-3.123-0.518-0.869,0-1.907,0.347-2.943-0.174,0,0-1.387-0.519-2.254-1.558,1.041,4.674,1.731,9.352,2.254,13.854v-0.171c0.861,1.04,2.074,1.732,2.074,1.732,1.213,0.694,2.255,0.518,2.953,0.518,1.039,0.176,2.426,0.519,3.111,0.866,0.698,0.346,1.912,1.561,1.912,1.561-0.354-4.853-1.04-9.701-1.912-14.551v-0.172z" inkscape:connector-curvature="0"/>
<path d="m339.37,143.88s-1.217-0.865-2.084-1.208c-0.867-0.175-2.255,0-3.117,0-0.867,0.171-1.907,0.519-2.951,0.171,0,0-1.385-0.346-2.599-1.212,1.739,4.5,3.124,9.006,4.157,13.508v-0.171c1.043,0.864,2.427,1.382,2.427,1.382,1.042,0.521,2.083,0.172,2.95,0.172,0.863,0,2.255,0.175,2.944,0.35,0.869,0.344,2.256,1.387,2.256,1.387-1.043-4.85-2.256-9.527-3.813-14.379h-0.17z" inkscape:connector-curvature="0"/>
<path d="m332.61,126.04s-1.559-0.693-2.427-0.865c-0.695,0-2.254,0.172-3.116,0.517-0.695,0.175-1.736,0.694-2.95,0.52,0,0-1.384-0.345-2.597-0.865,2.253,4.155,4.154,8.487,5.889,12.814v-0.172c1.044,0.693,2.432,1.036,2.432,1.036,1.211,0.351,2.245-0.171,2.94-0.171,1.043-0.172,2.428-0.347,3.117-0.172,0.867,0.172,2.253,1.208,2.253,1.208-1.557-4.671-3.466-9.176-5.541-13.679v-0.171z" inkscape:connector-curvature="0"/>
<path d="m323.43,109.4s-1.559-0.693-2.426-0.518c-0.861,0-2.254,0.344-3.117,0.693-0.695,0.345-1.559,0.865-2.768,0.865l-2.774-0.521c2.774,3.991,5.2,7.982,7.446,11.97,1.213,0.522,2.598,0.695,2.598,0.695,1.216,0.172,2.084-0.52,2.952-0.695,0.86-0.172,2.249-0.521,3.115-0.521,0.868,0.175,2.256,0.869,2.256,0.869-2.084-4.336-4.511-8.675-7.282-12.837z" inkscape:connector-curvature="0"/>
<path d="m312.17,94.003s-1.729-0.344-2.599-0.173c-0.689,0-2.081,0.693-2.772,1.039-0.866,0.519-1.557,1.212-2.77,1.384,0,0-1.386,0.173-2.773-0.172,3.29,3.464,6.234,7.1,9.014,10.737h-0.174c1.379,0.345,2.77,0.345,2.77,0.345,1.217,0,2.078-0.694,2.773-1.038,0.861-0.349,2.244-0.692,2.941-0.865,1.045,0,2.602,0.517,2.602,0.517-2.774-3.981-5.725-7.965-9.012-11.774z" inkscape:connector-curvature="0"/>
<path d="m298.84,80.171s-1.565-0.174-2.427,0.171c-0.696,0.173-1.908,1.039-2.775,1.556-0.69,0.348-1.208,1.213-2.421,1.557,0,0-1.386,0.345-2.779,0.172,3.642,3.113,7.107,6.226,10.224,9.685v-0.173c1.387,0.345,2.779,0,2.779,0,1.205-0.172,1.901-0.866,2.599-1.383,0.861-0.347,2.071-1.041,2.769-1.212,1.037-0.173,2.6,0.172,2.6,0.172-3.297-3.629-6.762-7.087-10.394-10.543h-0.175v-0.002z" inkscape:connector-curvature="0"/>
<path d="m284.12,68.198s-1.733,0.173-2.602,0.521c-0.697,0.345-1.729,1.213-2.426,1.901-0.691,0.522-1.211,1.387-2.255,1.907,0,0-1.382,0.521-2.77,0.521,3.984,2.594,7.795,5.195,11.436,8.137v-0.171c1.386,0.171,2.771-0.174,2.771-0.174,1.041-0.348,1.731-1.213,2.427-1.733,0.695-0.521,1.901-1.386,2.597-1.558,0.87-0.345,2.427-0.172,2.427-0.172-3.637-3.292-7.449-6.235-11.605-9.179z" inkscape:connector-curvature="0"/>
<path d="m267.66,58.326s-1.559,0.345-2.253,0.693c-0.69,0.52-1.731,1.558-2.249,2.251-0.525,0.693-1.04,1.557-2.083,2.251,0,0-1.212,0.691-2.598,0.868,4.331,1.903,8.493,4.152,12.479,6.579h-0.172c1.386-0.176,2.77-0.692,2.77-0.692,1.041-0.521,1.557-1.387,2.075-2.079,0.697-0.52,1.735-1.562,2.425-1.905,0.87-0.345,2.427-0.522,2.427-0.522h0.172c-4.155-2.594-8.482-5.194-12.819-7.445h-0.174v0.001z" inkscape:connector-curvature="0"/>
<path d="m250.34,50.706s-1.734,0.345-2.254,1.039c-0.698,0.52-1.559,1.561-2.076,2.426-0.35,0.693-0.693,1.729-1.564,2.423,0,0-1.211,0.865-2.427,1.213,4.509,1.387,8.841,3.117,12.996,5.022v-0.172c1.212-0.175,2.598-0.865,2.598-0.865,0.867-0.697,1.386-1.733,1.911-2.426,0.515-0.693,1.385-1.729,2.075-2.251,0.694-0.52,2.425-0.691,2.425-0.691-4.5-2.251-9.009-4.158-13.684-5.888v0.17z" inkscape:connector-curvature="0"/>
<path d="m231.98,45.334s-1.563,0.694-2.081,1.387c-0.52,0.52-1.214,1.732-1.559,2.6-0.344,0.691-0.525,1.73-1.386,2.594,0,0-1.04,1.042-2.257,1.562,4.505,0.865,9.185,1.903,13.688,3.288l-0.173-0.172c1.213-0.348,2.427-1.213,2.427-1.213,0.868-0.865,1.212-1.903,1.564-2.597,0.515-0.691,1.204-1.906,1.902-2.426,0.519-0.692,2.255-1.209,2.255-1.209-4.681-1.561-9.533-2.771-14.381-3.985v0.171h0.001z" inkscape:connector-curvature="0"/>
<path d="m213.1,42.392s-1.386,0.865-1.904,1.558c-0.521,0.693-0.867,2.079-1.212,2.943-0.353,0.694-0.353,1.734-1.043,2.772,0,0-0.866,1.041-2.079,1.735,4.853,0.345,9.354,0.692,14.036,1.384h-0.177c1.217-0.52,2.257-1.561,2.257-1.561,0.86-0.866,0.86-1.902,1.213-2.769,0.344-0.867,1.034-2.077,1.56-2.771,0.515-0.521,2.071-1.385,2.071-1.385-4.844-0.865-9.697-1.558-14.55-1.906h-0.172z" inkscape:connector-curvature="0"/>
<path d="m194.05,42.046s-1.386,1.038-1.732,1.732c-0.343,0.691-0.693,2.078-0.868,2.942-0.172,0.865,0,1.906-0.516,2.943,0,0-0.867,1.213-1.911,2.08,4.68-0.348,9.534-0.521,14.036-0.348v-0.173c1.04-0.692,1.907-1.902,1.907-1.902,0.689-0.871,0.689-1.906,0.865-2.771,0.349-0.87,0.693-2.251,1.212-2.944,0.525-0.692,1.736-1.559,1.736-1.559h0.171c-5.024-0.347-9.876-0.347-14.901-0.174v0.174h0.001z" inkscape:connector-curvature="0"/>
<path d="m175,44.122s-1.033,1.041-1.383,1.906c-0.171,0.693-0.346,2.251-0.346,3.119-0.172,0.865,0.175,1.903-0.344,2.944,0,0-0.518,1.385-1.558,2.25,4.674-0.865,9.355-1.733,13.854-2.25,1.043-0.869,1.738-2.08,1.738-2.08,0.516-1.041,0.344-2.077,0.516-2.946,0-0.865,0.347-2.423,0.698-3.117,0.346-0.693,1.556-1.903,1.556-1.903-4.851,0.517-9.704,1.038-14.55,1.903l-0.181,0.174z" inkscape:connector-curvature="0"/>
<path d="m156.46,48.627s-0.867,1.213-1.039,2.079-0.172,2.251-0.172,3.116c0.172,0.865,0.521,1.907,0.172,2.943,0,0-0.347,1.561-1.209,2.6,4.502-1.729,9.005-2.943,13.51-4.158h-0.171c0.869-1.037,1.559-2.25,1.559-2.25,0.343-1.213,0-2.251,0-2.945,0-1.041,0.172-2.426,0.343-3.12,0.354-0.864,1.393-2.076,1.393-2.076-4.853,0.866-9.532,2.076-14.214,3.637l-0.172,0.174z" inkscape:connector-curvature="0"/>
<path d="m138.81,55.555s-0.87,1.386-0.87,2.25c-0.174,0.694,0.172,2.251,0.345,3.117,0.171,0.868,0.697,1.733,0.525,2.946,0,0-0.182,1.383-0.87,2.596,4.157-2.251,8.491-4.157,12.821-5.887h-0.171c0.687-1.042,1.211-2.427,1.211-2.427,0.171-1.209-0.172-2.074-0.342-2.944-0.182-0.865-0.182-2.423,0-3.115,0-0.867,1.032-2.251,1.032-2.251-4.673,1.559-9.183,3.464-13.681,5.54v0.175z" inkscape:connector-curvature="0"/>
<path d="m122.01,64.561s-0.523,1.559-0.523,2.597c0,0.691,0.523,2.077,0.695,2.945,0.344,0.69,1.041,1.56,1.041,2.769,0,0-0.176,1.561-0.525,2.771,3.817-2.771,7.809-5.194,11.971-7.445h-0.171c0.525-1.213,0.696-2.598,0.696-2.598,0.172-1.213-0.343-2.078-0.524-2.945-0.344-0.865-0.687-2.249-0.516-3.117,0-0.868,0.697-2.249,0.697-2.249-4.344,2.075-8.681,4.502-12.841,7.272z" inkscape:connector-curvature="0"/>
<path d="m106.57,75.992s-0.35,1.558-0.177,2.425c0.177,0.694,0.694,2.079,1.212,2.944,0.352,0.692,1.039,1.385,1.211,2.595,0,0,0.181,1.387-0.172,2.771,3.469-3.288,7.11-6.232,10.919-9.006l-0.172,0.177c0.52-1.387,0.344-2.771,0.344-2.771,0-1.214-0.687-2.078-0.865-2.772-0.346-0.864-0.864-2.251-1.036-2.943,0-0.866,0.519-2.426,0.519-2.426-3.985,2.6-7.973,5.542-11.782,8.834v0.172h-0.001z" inkscape:connector-curvature="0"/>
<path d="m92.905,89.153s-0.172,1.558,0,2.425c0.174,0.69,1.043,1.905,1.558,2.771,0.525,0.692,1.221,1.212,1.565,2.423,0,0,0.346,1.384,0.174,2.771,3.12-3.637,6.423-7.1,9.718-10.216h-0.172c0.343-1.214,0.172-2.771,0.172-2.771-0.354-1.213-1.04-1.906-1.391-2.6-0.521-0.865-1.213-2.075-1.385-2.768-0.172-0.868,0.172-2.598,0.172-2.598-3.641,3.291-7.114,6.752-10.412,10.388v0.175h0.001z" inkscape:connector-curvature="0"/>
<path d="m80.957,104.05s0,1.559,0.343,2.423c0.35,0.694,1.214,1.734,1.908,2.427,0.517,0.693,1.386,1.209,1.902,2.251,0,0,0.527,1.387,0.527,2.771,2.595-3.984,5.367-7.793,8.14-11.429,0-1.214-0.347-2.771-0.347-2.771-0.344-1.04-1.211-1.733-1.729-2.424-0.525-0.693-1.384-1.907-1.559-2.599-0.354-0.866-0.179-2.427-0.179-2.427-3.291,3.641-6.239,7.45-9.183,11.607l0.177,0.171z" inkscape:connector-curvature="0"/>
<path d="m70.907,120.33s0.347,1.561,0.872,2.254c0.343,0.69,1.386,1.73,2.072,2.251,0.7,0.517,1.565,1.037,2.258,2.078,0,0,0.692,1.211,0.864,2.595,2.083-4.327,4.332-8.485,6.583-12.466v0.171c-0.171-1.385-0.688-2.771-0.688-2.771-0.523-1.037-1.391-1.558-1.907-2.078-0.7-0.694-1.733-1.73-2.083-2.424-0.346-0.867-0.518-2.426-0.518-2.426-2.597,3.983-5.196,8.313-7.454,12.643v0.173h0.001z" inkscape:connector-curvature="0"/>
<path d="m63.292,137.65s0.519,1.734,1.034,2.426c0.523,0.516,1.736,1.383,2.429,1.902,0.693,0.349,1.736,0.693,2.423,1.561,0,0,0.872,1.211,1.215,2.594,1.564-4.5,3.121-9.005,5.023-13.157h-0.172c-0.172-1.215-0.869-2.601-0.869-2.601-0.69-0.866-1.729-1.384-2.247-1.905-0.87-0.521-1.908-1.386-2.251-2.077-0.525-0.694-0.872-2.424-0.872-2.424-2.078,4.502-3.98,9.008-5.713,13.681z" inkscape:connector-curvature="0"/>
<path d="m57.921,156s0.689,1.558,1.387,2.076c0.516,0.521,1.73,1.214,2.601,1.736,0.865,0.343,1.902,0.343,2.769,1.208,0,0,0.869,1.042,1.384,2.251,0.871-4.503,1.911-9.176,3.297-13.68l-0.174,0.175c-0.344-1.214-1.212-2.426-1.212-2.426-0.867-0.865-1.736-1.215-2.598-1.558-0.697-0.521-1.908-1.215-2.429-1.907-0.695-0.516-1.212-2.073-1.212-2.073-1.383,4.503-2.77,9.349-3.813,14.198z" inkscape:connector-curvature="0"/>
<path d="m54.976,174.88s0.867,1.384,1.733,1.905c0.519,0.521,1.908,1.041,2.771,1.215,0.871,0.343,1.907,0.343,2.779,1.036,0,0,1.215,0.865,1.901,2.08,0.172-4.673,0.697-9.351,1.387-14.029l-0.171,0.175c-0.519-1.211-1.558-2.251-1.558-2.251-0.871-0.868-1.908-0.868-2.773-1.211-0.693-0.35-2.079-1.043-2.604-1.559-0.689-0.521-1.386-2.079-1.386-2.079-1.041,4.849-1.732,9.695-2.079,14.718z" inkscape:connector-curvature="0"/>
<path d="m54.646,193.94l1.729,1.729c0.69,0.347,2.249,0.693,3.116,0.868,0.69,0.172,1.73,0,2.767,0.519,0,0,1.387,0.868,2.073,1.904-0.344-4.677-0.515-9.351-0.344-14.029-0.861-1.037-1.901-1.902-1.901-1.902-1.036-0.696-2.075-0.696-2.944-0.868-0.865-0.343-2.249-0.692-2.767-1.214-0.867-0.344-1.729-1.73-1.729-1.73-0.344,4.85-0.344,9.698-0.172,14.723h0.172z" inkscape:connector-curvature="0"/>
<path d="m56.709,212.99s1.212,1.04,2.083,1.387c0.688,0.342,2.074,0.342,2.942,0.516,0.868,0,1.912-0.344,2.943,0.175,0,0,1.39,0.521,2.428,1.563-1.038-4.681-1.903-9.355-2.428-13.857-0.861-0.867-2.076-1.731-2.076-1.731-1.041-0.52-2.08-0.348-2.951-0.52-0.859,0-2.245-0.345-2.942-0.692-0.866-0.347-1.904-1.561-1.904-1.561,0.348,4.849,0.866,9.701,1.73,14.55l0.175,0.17z" inkscape:connector-curvature="0"/>
<path d="m61.209,231.52s1.386,0.869,2.258,1.043c0.693,0.171,2.08,0.171,3.119,0.171,0.69-0.171,1.733-0.518,2.945-0.171,0,0,1.384,0.343,2.427,1.212-1.559-4.501-2.944-9.003-4.157-13.513v0.173c-0.867-0.862-2.254-1.558-2.254-1.558-1.215-0.345-2.08,0-2.951,0-1.034,0-2.418-0.172-3.115-0.345-0.87-0.343-2.08-1.386-2.08-1.386,1.04,4.853,2.251,9.525,3.638,14.201l0.17,0.173z" inkscape:connector-curvature="0"/>
<path d="m68.138,249.19s1.386,0.868,2.256,0.868c0.866,0.171,2.254-0.18,3.121-0.354,0.862-0.172,1.73-0.687,2.946-0.515,0,0,1.386,0.172,2.597,0.868-2.255-4.155-4.157-8.487-5.72-12.815v0.171c-1.208-0.694-2.595-1.037-2.595-1.037-1.218-0.349-2.079,0.17-2.949,0.17-0.867,0.173-2.425,0.173-3.116,0.173-0.867-0.173-2.254-1.216-2.254-1.216,1.559,4.682,3.467,9.183,5.542,13.687h0.172z" inkscape:connector-curvature="0"/>
<path d="m77.321,265.98s1.558,0.518,2.427,0.518c0.69,0,2.072-0.518,2.944-0.689,0.865-0.347,1.736-1.04,2.77-1.04,0,0,1.563,0.171,2.774,0.522-2.774-3.813-5.201-7.797-7.45-11.781-1.21-0.516-2.598-0.69-2.598-0.69-1.215-0.171-2.08,0.348-2.951,0.69-0.862,0.172-2.246,0.524-2.944,0.348-0.865,0-2.423-0.69-2.423-0.69,2.251,4.327,4.68,8.658,7.275,12.813h0.176v-0.001z" inkscape:connector-curvature="0"/>
<path d="m88.578,281.4s1.558,0.343,2.425,0.173c0.69-0.173,2.083-0.691,2.945-1.216,0.696-0.344,1.387-1.033,2.597-1.212,0,0,1.559-0.171,2.77,0.179-3.113-3.465-6.058-7.101-8.834-10.914v0.172c-1.208-0.342-2.772-0.342-2.772-0.342-1.215,0-1.901,0.689-2.772,1.039-0.86,0.171-2.245,0.688-2.942,0.86-0.868,0-2.425-0.516-2.425-0.516,2.769,3.985,5.72,7.965,8.837,11.776h0.171v0.001z" inkscape:connector-curvature="0"/>
<path d="m134.65,364.88c-2.426,1.559-3.813,2.772-3.813,2.772l7.454,8.658,3.116-4.674-6.757-6.756z" inkscape:connector-curvature="0"/>
<path d="m138.8,360.38c6.759-5.541,12.302,1.73,12.302,1.73l-5.023,4.846-7.279-6.576z" inkscape:connector-curvature="0"/>
<path d="m257.44,367.13c2.254,1.731,3.637,2.946,3.637,2.946l-7.794,8.485-2.951-4.855,7.108-6.576z" inkscape:connector-curvature="0"/>
<path d="m253.47,362.6c-6.59-5.911-12.308,1.213-12.308,1.213l4.681,5.045,7.627-6.258z" inkscape:connector-curvature="0"/>
<path d="m240.82,348.08c-8.836-4.675-13.51,2.076-13.51,2.076,5.37,2.598,9.697,8.658,9.697,8.658l1.387,2.251-0.173-0.17s6.928-7.446,11.955-2.77c-2.077-2.775-3.985-5.201-5.027-6.411-0.863-0.86-2.421-2.248-4.329-3.634z" inkscape:connector-curvature="0"/>
<path d="m244.11,346c5.197-6.058,2.945-13.334,2.076-16.8l-10.569,4.853c0.172,0.519,1.729,3.463-1.212,6.93,0,0,10.224,4.328,9.705,5.017z" inkscape:connector-curvature="0"/>
<path d="m182.28,351.54c-1.042,0.182-1.911,0.182-2.951,0.182-1.73,0-3.634-0.354-5.2-1.043-1.383,4.501-11.605,3.462-11.605,3.462,3.637,3.466,8.489,6.064,13.688,6.925v-0.17s5.714-1.213,5.889-9.527l0.179,0.171z" inkscape:connector-curvature="0"/>
<path d="m223.5,348.6c0,0.173,7.099-6.579,11.606-4.503l-1.041-0.868c-3.986-3.115-9.009-4.845-13.861-5.018-4.33,0-11.953,1.212-13.685,3.985,0,0,6.584,1.382,10.74,5.542,0.345,0.344,2.084,0,6.241,0.862z" inkscape:connector-curvature="0"/>
<path d="m159.24,354.84c-2.076,1.383-3.291,2.59-3.291,2.59l-2.08,1.909h0.172s-6.583-7.797-11.781-3.289c2.082-2.599,3.983-5.194,5.198-6.238,1.041-1.212,2.426-2.427,4.5-3.46l-0.69,0.343c0.872-0.343,1.558-0.517,2.254-0.868,0.001-0.001,1.386,6.582,5.718,9.013z" inkscape:connector-curvature="0"/>
<path d="m212.59,348.94c-6.066-5.017-12.131-5.886-16.633-7.271l-9.009,6.239,10.738,3.632c3.295,0.867,3.984,2.426,8.144,5.025,0,0,9.533-5.541,6.76-7.625z" inkscape:connector-curvature="0"/>
<path d="m231.12,357.95c-3.469,3.463-9.355,3.807-9.355,3.807-3.983,0.182-7.795-0.344-12.478-3.116,0,0,7.799-5.36,7.451-7.961,1.904,0.346,7.448,1.385,8.84,0.346,0-0.001,1.901,4.673,5.542,6.924z" inkscape:connector-curvature="0"/>
<path d="m185.22,351.02,0.175-0.171,4.499,1.037c8.15,2.075,9.533,3.289,9.533,3.289s-9.18,8.658-17.33,6.576,6.068-4.5,3.298-10.902l-0.175,0.171z" inkscape:connector-curvature="0"/>
<path d="m243.07,326.78s0.341-1.04,0.515-1.908c0.18-0.69,0.524-1.733,0.352-2.601,0-0.861-0.695-1.559-0.352-2.592,0,0,0.868-2.598,1.738-3.641-4.509,1.559-10.919,3.982-15.077,6.232-1.04,0.524-1.902,1.044-1.902,1.044-0.525,1.038-0.696,1.9-0.696,2.769s-0.172,2.254-0.172,3.115c0,2.083-1.903,4.853-1.903,4.853,4.849-0.868,11.087-3.638,15.07-6.063l2.427-1.208z" inkscape:connector-curvature="0"/>
<path d="m216.92,323.66c4.156-3.46,7.614-4.677,10.389-3.986,9.532-3.983,11.091-4.327,11.091-4.327-3.642-4.33-7.455-5.02-14.035-4.85-2.945,0.176-11.953,3.463-13.34,5.371l5.895,7.792z" inkscape:connector-curvature="0"/>
<path d="m216.92,323.66s-7.461-5.889-5.206-8.489l5.206,8.489z" inkscape:connector-curvature="0"/>
<path d="m167.9,350.16c1.039-0.347,2.079-1.216,2.427-1.559h0.171c-3.641-2.773-5.89-7.274-5.89-12.121-6.588-0.868-7.975-8.312-7.975-8.312-1.039,2.597-1.558,5.188-1.558,8.134,0,5.024,1.385,9.873,3.984,13.857h0.175c0.001,0.001,5.025,1.04,8.666,0.001z" inkscape:connector-curvature="0"/>
<path d="m158.54,324.18s1.564,7.792,6.759,8.134c1.044-3.286,5.372-7.1,8.145-9l1.039-1.215c-0.867-6.404,2.08-10.047,2.08-10.047l-2.947,0.698c-6.239,1.729-11.781,6.061-15.076,11.43z" inkscape:connector-curvature="0"/>
<path d="m182.45,312.92c0.862-1.213,2.426-0.693,3.467-0.869,5.716-0.686,13.684,3.116,15.244,6.759l-2.601,1.9c-2.074,1.906-5.197,2.255-5.197,2.255l-1.385-0.523c-1.73-0.688-4.503-1.034-6.583-1.034-1.905,0-4.16-0.521-5.889,0.171-2.254-2.253,2.944-8.659,2.944-8.659z" inkscape:connector-curvature="0"/>
<path d="m207.9,333.88c-0.867,0.344,4.683,2.248,13.339,1.034v-0.173s1.216-1.211,1.566-1.9c0.172-0.696,0.861-2.428,0.861-3.289,0.171-0.87,0.353-1.386,0.353-2.601,0,0,0-1.04,0.515-2.08-1.038,0.521-6.239,2.252-6.239,2.252-1.382,0.347-2.425,0.518-2.425,0.518-0.691,0.525-1.387,1.215-1.901,1.73-0.525,0.354-1.559,1.215-2.599,2.254-0.524,0.348-3.123,1.905-3.47,2.255z" inkscape:connector-curvature="0"/>
<path d="m188.17,334.91l0.171-3.805c0.175-1.043,0.518-1.738,0.867-2.601,0.346-0.697,0.69-1.729,1.558-2.77l-1.735,0.172c-4.847-0.519-7.273-0.868-11.781-1.73-1.384,0.345-3.46,1.73-3.984,2.599-0.344,0.69-1.042,1.032-1.559,1.558-0.514,0.519-1.729,2.076-1.729,2.076,4.673,2.08,13.51,4.681,18.192,4.501z" inkscape:connector-curvature="0"/>
<path d="m213.98,325.56s-6.239-5.195-5.198-9.009c-6.936,6.238-9.705,9.354-15.42,9.354-1.563,0.172-0.352,0-0.352,0-0.69,0.868-1.034,2.076-1.384,2.944-0.175,0.869-0.519,1.73-0.519,2.599-0.172,2.419,0,3.115,0,3.115,6.411,0.345,5.886,0.519,11.78-1.039,0,0,3.986-1.386,7.798-5.199,0.696-0.518,2.597-2.076,3.295-2.765z" inkscape:connector-curvature="0"/>
<path d="m190.6,340.28c-7.107-2.591-16.805-3.459-22.005-1.385l1.215,2.426,3.635,4.849,4.161-0.348,5.543,1.216c0.001,0,6.581-6.929,7.451-6.758z" inkscape:connector-curvature="0"/>
<polygon points="255.37,366.09,255.37,366.09,254.5,365.05,247.56,371.11,248.43,372.15"/>
<polygon points="142.96,369.9,142.96,369.9,143.83,368.86,137.25,362.62,136.38,363.67"/>
</g>
</g>
<g stroke="#000" transform="matrix(0.98315347,0,0,0.98315347,-365.22131,0.0424771)">
<path d="m452.33,391.49-71.42,0c-16.31-83.91,38.49-165.15,122.4-181.46s165.15,38.49,181.46,122.4c3.7916,19.506,3.7916,39.559,0.00001,59.065h-71.624" sodipodi:nodetypes="ccsscc" inkscape:connector-curvature="0" stroke-miterlimit="4" stroke-dasharray="none" stroke-width="12" fill="none"/>
<path stroke-linejoin="miter" d="m522.91,258.19c1.3216-0.0264,2.1646,1.7976,1.1875,6.6562-0.34547,1.4003-0.38086,3.9362-1.2188,5.1875-2.1452,3.2035-4.5558-1.5679-4.6562-3.625-0.20429-4.1837,2.7559-8.1802,4.6875-8.2188zm-0.75,24.156c0.67504,0.005,1.4884,0.31095,1.9375,0.28125,3.0437,1.4092,1.8655,6.25-1.5938,6.25-3.6886,0-4.0792-4.875-0.96875-6.4062,0.17629-0.0868,0.39999-0.12673,0.625-0.125zm-50.66,2.96c0.12498-0.0112,0.25655-0.008,0.40625,0,0.88708,0.048,2.2182,0.46732,4.125,1.4062-0.70766,8.1522-8.4055-1.0586-4.5312-1.4062zm-6.5938,6.125c0.44056-0.0266,0.92909-0.0312,1.4688,0,1.9357,2.0131,1.7516,1.4911,0.5,2.6562-4.3879,4.0847-8.5772-2.2576-1.9688-2.6562zm-11.25,3.9375c1.7529,3.7071-0.2316,3.815-1.5,6.6562-1.0958,2.4546-1.2491,6.2164-1.0625,8.8438,0.18523,2.6079,1.1206,9.1875,4.8438,9.1875,0.74034,0,3.5902-0.56625,4.0625-0.0625,3.7251,3.9735-3.5234,15.407-5,19.188-0.85728,2.1946-4.1206,10.159-7.3125,9.75-1.3017-0.16662,0.87331-13.337,0.1875-15.312-0.4595-1.3234-2.6176-1.3539-2.8438-2.6562-0.53047-3.0555,3.9989-7.0252,1.4062-10.344-1.2521-1.6027-6.6014-2.215-6.9688-3.4688-0.3695-1.2612,1.6052-3.1685,2.4062-3.9375,2.2193-2.1305,3.0599-6.7012,4.4688-9.4062,1.6519-3.1716,5.6887-5.106,7.3125-8.4375zm99.875,4.0625c-1.5515,0.24825-8.835,9.0535-9.5,10.969-0.69595,2.0043,0.18102,4.3868,0.3125,6.4062,0.22572,3.4672-1.3613,9.0116,2.7812,11,4.9708,2.386,9.6212-16.734,7.8125-19.906,0.32762-1.2499,2.1583-9.0391-1.4062-8.4688zm-86.812,0.84375c0.54339-0.0358,1.0604,0.0737,1.5312,0.375,3.5101,2.2464-1.7861,7.5725,0.3125,9.875,2.118,2.3237,5.913,2.3578,6.125,6.125,6.9555,8.2217-5.0279,7.9556-9.0312,3.3438-1.1077-1.276-1.4645-3.3132-2.5625-4.4375-1.8464-1.8908-4.5244-1.1151-4.9688-4.8125-0.3128-2.6025,4.79-10.218,8.5938-10.469zm140.56,2.0625c1.7286,0,2.7658,1.4906,2.6562,3.0938-2.6176,12.397-9.9914-3.0938-2.6562-3.0938zm-86.79,3.66c1.3084,0.15584,3.0437,1.741,5.1562,5.7188-0.53854,0.74678-1.3656,3.0962-2.125,3.9062-7.0892,7.5618-7.7042-10.182-3.0312-9.625zm86.438,10.375c1.1723-0.0628,2.3165,1.2514,2.875,1.9062,1.616,1.3359,2.1417,1.5396,0.84375,3.0625-5.6596,6.6406-10.345-2.2301-4.2188-4.8438,0.16661-0.0711,0.33253-0.11603,0.5-0.125zm-192.69,3.18c1.3849,3.452-0.60574,9.4703-0.96875,13.188-0.11707,1.1987-5.4418,5.0272-6.6562,4.25-0.37964-0.24297-1.3479-1.2852-1.2188-1.7812,0.56433-2.167,5.6185-12.903,6.625-14.406,0.40504-0.60485,2.1744-0.70749,2.2188-1.25zm23.781,2.125c0.85584,0.0359,1.5319,0.75742,1.875,2.4062-0.0194,0.96871,0.17539,4.2482-0.375,5.1875-1.317,2.2477-8.8777,11.043-11.031,6.2188-0.93184-2.0873,5.4628-13.156,9.1562-13.781,0.12927-0.0219,0.25274-0.0364,0.375-0.0312zm157.88,2.8438c0.57468-0.0575,1.3574,0.11702,2.4375,0.625-0.1174,0.49203,0.20575,2.2975-0.0625,2.8125-1.9855,3.8121-5.4783-3.1271-2.375-3.4375zm54.97,10.42c0.16038,0.01,0.2926,0.0684,0.375,0.15625,0.60663,0.64707,0.33755,1.5839,0.40625,2.375,0.0852,0.98166,0.37377,1.0428,1.4375,2,2.717,6.0072-12.085,9.4991-15.062,7.5938-0.67523-0.4319-0.90023-1.7401-0.65625-2.4688,0.53807-1.607,11.094-9.7988,13.5-9.6562zm-236.5,1c2.037-0.21354,7.6941,12.068,8.4688,13.5,2.0126,1.127,4.0374,4.7967,6.3438,4.375,3.2902-0.60163-2.0311-6.8884,2.6875-7.4375,4.4427-0.51697,5.7812,2.8377,5.7812,6.8125,0,0.42059,0.45863,1.2822,0.3125,1.6562-0.53079,1.3588-5.0807-0.3895-5.3125,1.6875-0.34539,3.0947,15.413,5.6772,18.188,6,1.6483,0.1918,3.827-0.97803,5.4062-1.2812,1.4561-0.27957,3.0049,0.43565,2.625,2.2188-2.0835,9.7784-23.153,4.4762-29.688,3.2812-2.3728-0.43388-7.0888,1.9957-8.9375,0.8125-3.319-2.1242,1.8097-8.1739,1.4375-8.5312-0.15857-0.15223-6.8536,2.625-8.3438,2.625-1.1658,0-2.6444-5.8863-2.7812-6.9375-0.38875-2.9856-4.0135-4.5698-5.4375-7-0.16662-0.28436-0.44957-1.1494-0.25-1.4688,0.96843-1.5495,3.1886-2.1325,4.4375-3.5312,1.7304-1.938,2.4356-5.2995,4.875-6.7188,0.0579-0.0337,0.12179-0.0556,0.1875-0.0625zm13.188,5.25c0.59373-0.01,1.3037,0.0972,2.125,0.28125,0.40522,2.3989,0.46007,2.7961-0.96875,4.625-2.6049,3.3342-6.8956-4.8116-1.1562-4.9062zm40,0.0937c0.84148-0.00073,1.648,0.85305,2.1875,1.25-0.25211,2.4525-0.37209,4.6668-1.1562,6.875-0.54143,1.5247-0.94162,2.7248-1.8125,4.0625-0.71192,1.0935-1.083,2.0795-2.125,2.9688-0.83483,0.71239-1.5667,2.1928-2.5625,2.6562-2.0877,0.97173-3.125-1.9223-3.125-3.4062,0-2.7218,6.0085-13.636,8.2188-14.344,0.12111-0.0387,0.25479-0.0624,0.375-0.0625zm44.812,2.4062c-2.8755-0.006-6.2008,5.8768-3.6875,9.0938,1.8404,2.3557,7.8246,3.8217,7.0312-0.875-0.0418-6.0916-1.6185-8.215-3.3438-8.2188zm148.18,1.31c0.72922,0.0366,1.3467,0.18198,1.75,0.46875,2.3726,1.6872-0.12453,7.2759,2.5625,8.9062,1.0775,1.2807,4.8438,4.1411,4.8438,5.9062,0,2.3327-11.364,1.883-13.312,1.6562-0.71402-0.0831-2.0571-1.4656-2.5625-1.9688-9.57-9.5274,1.6142-15.225,6.7188-14.969zm-179.78,1.375c0.9964-0.0106,2.082,0.3777,3.0625,1.3438,0.59194,2.5486-1.4395,8.5242-5.0938,5.25-3.2168-2.8823-0.95796-6.5621,2.0312-6.5938zm-87.469,1.6875c2.0756-0.3031,3.1449,3.4411,5,4.4375,1.6194,3.8347-2.1562,2.5116-2.1562,5.5938,0,2.8514,1.8619,4.0814,2.1562,6.7188,0.28274,2.5333-5.6547,1.6344-6.7812,0.625-2.3813-2.1336-5.5659-12.399-3.4688-15.531,0.61824-0.92329,3.605-0.88705,3.625-0.90625,0.60898-0.58462,1.146-0.86755,1.625-0.9375zm248.66,2.8438c0.46469,0.0273,0.82949,0.193,1.0938,0.53125,1.0702,1.3699,0.49803,2.2001-0.6875,3.4375-0.68619,1.0903-1.1297,1.6011-2,2.3438-0.92426,0.78871-2.4839,1.5061-3.7188,1.2188-4.9761-1.1581,2.0596-7.7222,5.3125-7.5312zm-30.156,6.1875c0.63764,0.0298,1.317,0.2332,2.0312,0.625,4.2087,2.3088-2.5082,11.666-6.3438,8.5-1.7447-3.143,0.18198-8.6396,3.6875-9.0938,0.20224-0.0262,0.41245-0.0412,0.625-0.0312zm-122.5,1.7812c0.54957-0.0476,1.274,0.12078,2.375,0.59375,4.8029,5.8403-3.5108,4.8357-6.0625,6.4688-1.8451,1.1809-5.0346,3.1959-7.0625,3.9375-2.2561,0.82507-1.936-0.82822-3.6875-1.4688-1.8465-0.67528-6.3664-0.60015-8.2812-0.25-2.8858,0.52769-3.2288,3.1482-4.9062,4.9375-2.97,3.168-7.5133,5.6786-11.562,7.4062-2.6309,1.1225-5.8177-0.35623-8.5312,0.375-4.9259,1.3274-9.1666,3.3257-14.438,2.8438-4.1271-0.37734-7.6727-1.625-12-1.625-3.9044,0-19.062,5.7486-20.344-0.8125-2.4815-12.705,5.9712-3.4735,9.4375-5.375,1.5174-0.83242,2.6359-3.3572,4.1562-3.8438,2.3146-0.74068,4.394,2.0676,6.4688,1.625,6.6794-1.4249,16.743-0.12246,23.75,0.625,1.7887,0.19079,3.9764,1.481,5.7812,1.25,1.8124-0.23199,3.5183-1.2129,5.3125-1.5,1.4605-0.23369,3.8054-0.12448,5.125-0.6875,1.159-0.49451,3.4438-3.1925,4.5-4.0938,1.8866-1.6099,4.0078,0.19919,5.1875-1.5625,1.0752-1.6056-0.20355-4.6747,1.375-5.9375,1.7746-1.4197,7.2943-1.6962,9.0938,0.0312,0.72081,0.69197,0.41936,3.1767,1.5938,3.3438,2.5485,0.36246,3.6106-2.1228,5.4375-3.125,1.1449-0.62804,2.6403,0.0377,3.9688-0.8125,1.7285-1.1062,2.1034-2.2391,3.3125-2.3438zm151.56,4.3125c0.33305-0.008,0.69682,0.0265,1.0625,0.0625,5.1143,0.50356,9.9188,0.23189,14.969,1.0938,1.7374,0.29651,3.0275,3.22,0.90625,4.125-2.7438,1.1707-8.0781-2.1717-11.812-1.375-5.0466,1.0766-9.6294,8.9172-15.594,7.2812-2.1438-0.58802-7.2451-2.8925-6.0312-6,0.0259-0.0662,9.0548-3.236,10.188-3.4375,2.3499-0.66172,3.9812-1.6951,6.3125-1.75zm40.253-8.9663c-1.1326,2.8994-7.5834-6.6523-9.7502-8.039-1.1057-0.70765-2.5812-0.57138-3.7332-1.1244-4.2621-2.0458-8.6012-6.576-10.892-10.681-0.65399-1.172-1.0783-3.9507-2.2838-4.7222-1.4277-0.9137-3.4985-1.4643-4.6555-2.6984-0.33387-0.35614-0.97947-2.4565-1.0541-2.3611-0.8533,1.0922-3.597,0.607-4.3041,2.4173-0.58245,1.4911,0.30091,4.843-0.79055,6.2401-2.8863,3.6945-8.6992,7.75-13.527,5.0033-1.5474-0.88027-0.63338-18.033-6.7197-17.652-0.66797-0.92625-4.5707-4.2933-5.6656-6.7461-1.6731-3.7476,0.26115-8.8301-1.7129-12.199-0.82475-1.4076-4.2232-2.5919-5.5339-3.7103-1.0538-0.89926-1.5357-3.6535-2.8548-4.2163-2.4208-1.0329-6.6721,13.1-17.875,10.232-3.0375-0.77761-0.48083-6.2934-1.8446-8.0391-2.0002-2.5602-6.3237-4.4679-7.9495-7.5893-1.8252-3.5045-3.4715-7.7951-6.1488-10.794-1.0774-1.2067-3.7703-2.2798-4.5237-3.8228-1.913-3.9178-2.9342-9.6229-5.9292-12.818-1.0869-1.1593-2.8287-0.82644-4.348-0.78704-2.4194,4.8173-10.27-4.2664-11.727-5.5093-1.2396-1.0578-2.9475-1.3457-4.4359-2.1925-4.9965-2.8424-5.8718,4.2179-3.8649,7.8142,2.4694,4.4251,7.115,2.4279,7.115,8.2077,0,0.97825-0.0994,1.5923-1.2298,1.799-2.4146,0.44152-4.7316-3.6274-6.544-4.4974-2.3651-1.1352-5.465-0.48421-7.8616-1.799-5.3889-2.9562,1.5363-10.016,1.098-14.504-0.1498-1.5339-1.8791-1.3297-3.2061-1.3492-14.77,1.4542-18.672,24.441-29.163,33.393-5.2883,4.5127-22.5-0.18474-28.723-1.1806-2.6403-0.42245-6.9337,1.7076-9.4866,2.3611-10.824,2.7709-12.875,12.487-19.544,18.889-1.2784,1.2272-3.3615,2.7407-4.2163,4.2725-2.0437,3.6623-3.3724,8.1956-5.9731,11.525-1.5478,1.9812-9.3019,0.82093-11.112-0.3373-3.3988-2.1752-4.1818-8.7484-10.233-7.0272-0.58439,0.16623-0.0434,1.7418-0.30743,2.2487-3.5168,6.7522-6.7837,22.443-12.737,26.253-2.3349,1.4944-6.1648-0.6966-8.6083,0.50596-9.556,2.4624-5.9534,15.842-6.7424,23.113-0.75785,6.9844-2.9446,20.937,2.4379,26.574,0.92152,0.96509,2.4641,1.5808,3.6025,2.246,1.5625,0.91308,3.2112,1.913,4.9224,2.5242,3.9024,1.394,13.1,0.93416,17.469,0.93416,8.3464,0,16.398,0.70842,24.705-0.77516,1.3381-0.23899,2.8998-0.23112,4.177-0.71552,2.016-0.76459,4.435-1.6964,6.1646-2.9615,0.90359-0.66091,1.4296-1.8244,2.4068-2.4248,1.3856-0.8513,2.9791-1.3639,4.2416-2.3757,2.8447-2.5824,6.2018-4.618,10-5.3125,2.1755-0.39781,4.3398,0.91538,6.4688,1.125,6.8088,0.6704,16.507,0.57656,22.438-3.2188,4.1887-2.6808,4.9826-9.6989,7.7812-13.281,1.6132-2.0648,4.055-2.1168,5.3125-4.5312,0.54455-1.0455,0.30621-2.9108,0.15625-4.0625-0.15519-1.1919-4.2384-4.5263-5.2188-5.7812-1.4184-1.8156-2.4087-5.5073-4.6562-5.7812-2.1305-4.0915-0.72518-1.4051-1.7812-2.25-3.6282-2.9026-0.44168-6.1289,0.46875-9.625,0.3353-1.2875,0.95132-2.483,1.2812-3.75,0.0485-0.18652-0.0699-0.60913-0.0937-0.625-0.0791-0.005-0.56316-0.85534-1.9375-1.0312-1.5684-0.20075-3.4848,0.3799-4.6875,1.4062-1.6675,1.4229-4.621,10.579-7.75,7.375-1.0275-1.0521-1.4688-2.2656-1.4688-3.8125,0-6.2733,4.9838-7.1047,5.7812-11.188,0.69916-3.5797-4.5147-3.1496-4.2188-6.9375,0.21465-2.7476,4.0517-4.7603,4.6562-7.4688,0.86716-3.8849-2.3234-9.8951-0.46875-13.219,0.37031-0.66359,16.795-5.2718,18.875-5.9375,1.6427-0.52567,6.9599-6.0421,7.9375-5.625,1.7061,0.72794,2.6696,8.2532,1.9062,9.7188-0.56227,1.0796-3.0836,1.1111-3.25,1.75-0.6385,2.4519,4.8028,8.0762,3.0625,12.531-1.2578,3.2199-3.8165,11.604-6.4375,14-0.49127,0.44916-2.3438,0.14132-2.7188,0.78125-3.981,6.7942,12.011,5.6766,7.0625,8.8438-2.6018,1.6652-11.161,9.7178-10.75,12.875,0.85976,6.6029,15.496-8.9628,16.688-11.25,0.59339-1.1393,2.038-8.1202,2.2812-8.0312,0.81773,0.29906,2.5552,0.48576,3.3438,1.0625,1.5443,1.1295,4.3614,8.4048,2.25,9.9062-2.5254,1.7959-8.315-1.9349-9.9375,2.2188-2.0878,5.3446,7.7457,1.6059,8.125,3.0625,0.56631,2.1746-6.1024,5.1692-4.5938,9.0312,1.8852,4.8262,8.5868-5.0812,8.7188-5.1562,2.6695-1.5187,9.3204,2.2897,10.594-0.5625,2.3571-5.2798-2.9299-6.0126-5.9375-7.9375-2.2326-2.1374,3.3125-3.9672,3.3125-5.4062,0-4.5432-3.8749-7.0082-3.6875-8.6875,0.66621-5.9692,4.1195-6.2788,6.5625-10.188,1.6026-2.5641,1.6937-21.845,0.1875-24.844-2.4681-2.4785-3.4769,0.38632-4.125,2.875-0.67843,2.6052,0.72938,6.4297-0.78125,8.75-1.2562,1.9295-6.5051,2.8661-6.8125-0.28125-0.36778-3.7661,4.3962-7.613,5-12.25,0.26519-2.0366-1.3375-17.541,3.2188-14.625,1.0892,0.69708,2.9589,1.0905,3.6875,2.1562,2.1045,3.0786,0.79221,6.5491,1.5625,10,0.27965,1.2528,2.3761,2.0315,2.9375,3.4688,1.3889,3.5555-1.3579,12.297,3.8438,13.406,5.8118,1.2399,2.838-3.6286,5.4375-5.625,0.88603-0.68047,3.5372,0.41333,4-0.96875,1.4668-4.3808-3.6089-5.1466-3.875-7.5312-0.39697-3.5568,2.434-6.3881,4.0938-8.9375,0.90452-1.3894-0.60969-3.7433,0-4.7188,0.85162-1.3626,4.4493-0.77373,5.625-0.34375,3.8228,1.398-1.6624,9.0167-2.5,10.625-0.41785,0.80227,0.0812,3.107,0.28125,3.875,0.65601,2.5193,0.11829,5.7475,0.71875,8.4375,0.7781,3.4859,3.9753,6.8443,5.2812,10.188,0.71356,1.8267,0.53576,4.5087,1.3125,6,0.37338,0.71689,1.1411,1.0502,1.9688,0.96875,7.9433-0.78212,2.2334-7.3488,0.84375-10.906-1.4826-3.7954-1.5868-7.6889-3.2188-9.125-1.9788-2.4993-2.722-6.896,0-9.2188,4.1705-3.5588,5.5868,9.4938,7.25,10.406,3.3848,1.8568,5.8401-0.53273,6.3125,1.2812,1.1734,4.5057-3.3005,1.876-3.6875,5.3438-0.27586,2.4717,5.5868,10.669,7.0938,13.562,1.5503,2.9766,9.5277-6.2582,10.125-0.90625,0.23984,2.149-1.9907,4.3062-2.75,6.25-4.2594,10.904-10.286,21.02-19.125,28.562-2.6219,2.2374-6.6031,2.9577-9.3438,5.0625-3.0883,2.3718,9.6222,2.5493,1.5938,7.6875-1.0716,0.68585-2.9572-4.1739-3.9062-4.7812-2.9178-1.8674-6.8464-0.27403-9.0625-1.125,1.1659,0.35913-1.0668,2.467-0.40625,3.3125,2.306,2.9517,9.0087,9.83,13.188,9.3438,0.44275-0.0515,18.575-11.002,19.281-11.906,3.2874-4.2078-2.298-10.057,5.4062-12.875,1.2939-0.47319,2.6376,0.64615,3.0625,1.625,0.70085,1.6148,3.3118,1.7982,3.0938,4.0312-0.30915,3.1657-6.7271,6.3593-3.0312,9.0625,1.9627,1.4356,3.9449-0.82059,5.4688-1.6875,4.2233-2.4026,6.5159-8.6378,9.8438-12.188,1.0983-1.1716,3.4709-0.17552,4.2188-1.4062,2.1151-3.4809-0.57267-7.5698,3.2188-11.938,2.4528-2.8256,6.5001-1.6146,7.0938,0.96875,2.5007,4.3686-1.2608,10.405,1.7188,14.219,0.72101,0.92289,5.5312-5.3288,5.5312,2.6875,0,2.7913-2.4377,6.7255-5.7812,6.25-1.0113-0.14383-5.2883,0.38972-5.8125-0.28125-1.9034-2.4364,1.1538-5.8726-5.1875-3.4375-3.1199,1.198-4.4388,6.0144-7.4688,7.4688-4.1554,1.9946-7.0818,5.0324-10.938,7.5-2.3476,1.5025-8.5975-0.25178-14.094,2.875-2.9856,1.6984-6.3937,3.0637-9.875,3.4688-1.2923,0.1504-5.5778-0.78577-6.4062,0.0625-0.48539,0.49704-0.0997,1.4051,0.125,2.0625,0.63107,1.1634-0.91037,4.9699,0.625,5.625,1.1344,0.48402,17.806-2.986,20.281-3.25,5.3952-0.57549,11.286,1.2033,16.781,0.5,5.2017-0.66582,10.56-1.3336,15.844-0.71875,5.141,0.59822,11.104,1.5721,16.344,1.125,2.9955-0.25562,6.677-0.86674,9.4062-2.0312,2.0014-0.85391,2.7318-2.599,5.4375-3.0938,2.0061-0.36684,3.333,2.9431,4.5312,2.6875,4.032-0.86016,10.076-1.2694,12.812-1.9062,1.5272,0.0593,12.655-2.8412,13.062-1.625,0.85537,2.5547-1.9746,6.2716-2.25,7.5938-5.8546,6.2254-18.467,3.8672-26.469,4.3125-5.3777,0.29928-11.278,1.7508-16.656,1.125-5.4542-0.63467-13.05-2.0918-17.625,1.8125l-0.96875,1.7812c-0.10278,2.1679,1.417,5.3804,3.4318,6.498,5.2049,2.887,19.38,2.7243,25.699,2.1466,1.512-0.13825,3.0903,0.14552,4.6118,0.0199,4.3537-0.35953,8.6543-1.1708,12.904-1.9478,4.6383-0.84815,9.6659-1.0685,13.975-3.1006,7.4204-3.4993,12.929-13.866,11.957-22.162-0.28652-2.445-1.6367-5.9052-2.764-8.0696-0.43957-0.84398-1.1731-1.6023-1.4752-2.5044-0.33517-1.001-0.34297-1.7508-0.92916-2.6907" inkscape:connector-curvature="0" stroke-linecap="butt" stroke-width="1px" fill="#000"/>
</g>
</g>
</svg>
