<?xml version="1.0" encoding="UTF-8"?><svg id="Block_2" xmlns="http://www.w3.org/2000/svg" xmlns:xlink="http://www.w3.org/1999/xlink" viewBox="0 0 153.15 89.73"><defs><style>.cls-1{fill:url(#New_Gradient_Swatch_1);}.cls-2{fill:url(#New_Gradient_Swatch_1-2);}.cls-3{fill:url(#linear-gradient);}</style><linearGradient id="linear-gradient" x1="22.5" y1="94.73" x2="22.5" y2="139.73" gradientTransform="translate(0 -50)" gradientUnits="userSpaceOnUse"><stop offset="0" stop-color="#f2cf73"/><stop offset=".5" stop-color="#f2cf73" stop-opacity=".5"/><stop offset=".55" stop-color="#f2cf73" stop-opacity=".48"/><stop offset=".61" stop-color="#f2cf73" stop-opacity=".41"/><stop offset=".69" stop-color="#f2cf73" stop-opacity=".3"/><stop offset=".77" stop-color="#f2cf73" stop-opacity=".14"/><stop offset=".8" stop-color="#f2cf73" stop-opacity=".07"/></linearGradient><linearGradient id="New_Gradient_Swatch_1" x1="76.01" y1="67.73" x2="76.01" y2="139.73" gradientTransform="translate(0 -50)" gradientUnits="userSpaceOnUse"><stop offset="0" stop-color="#f2cf73"/><stop offset=".5" stop-color="#f2cf73" stop-opacity=".5"/><stop offset=".55" stop-color="#f2cf73" stop-opacity=".48"/><stop offset=".61" stop-color="#f2cf73" stop-opacity=".41"/><stop offset=".69" stop-color="#f2cf73" stop-opacity=".3"/><stop offset=".77" stop-color="#f2cf73" stop-opacity=".14"/><stop offset=".8" stop-color="#f2cf73" stop-opacity=".07"/></linearGradient><linearGradient id="New_Gradient_Swatch_1-2" x1="130.65" y1="50" x2="130.65" xlink:href="#New_Gradient_Swatch_1"/></defs><rect class="cls-3" y="44.73" width="45" height="45" rx="21.45" ry="21.45"/><path class="cls-1" d="M76.01,17.73h0c12.7,0,22.99,10.07,22.99,22.5v27c0,12.43-10.29,22.5-22.99,22.5h0c-12.7,0-22.99-10.07-22.99-22.5v-27c0-12.43,10.29-22.5,22.99-22.5Z"/><path class="cls-2" d="M130.65,0h0c12.43,0,22.5,9.13,22.5,20.39v48.95c0,11.26-10.07,20.39-22.5,20.39h0c-12.43,0-22.5-9.13-22.5-20.39V20.39c0-11.26,10.07-20.39,22.5-20.39Z"/></svg>