<svg width="42" height="42" viewBox="0 0 42 42" fill="none" xmlns="http://www.w3.org/2000/svg">
<circle cx="21" cy="21" r="21" fill="black"/>
<path fill-rule="evenodd" clip-rule="evenodd" d="M34 20.5076C34 20.2823 33.9106 20.0672 33.7619 19.9052L25.719 11.4685C25.4013 11.1352 24.887 11.1361 24.5701 11.4685C24.2524 11.801 24.2524 12.341 24.5701 12.6734L31.2269 19.6554H8.8125C8.364 19.6554 8 20.0368 8 20.5076C8 20.9784 8.364 21.3598 8.8125 21.3598H31.2261L24.5701 28.3418C24.2524 28.6743 24.2532 29.2143 24.5701 29.5467C24.8878 29.8791 25.4021 29.8791 25.719 29.5467L33.7619 21.11C33.9139 20.9506 33.9976 20.7312 34 20.5076Z" fill="white"/>
</svg>
